<?xml version="1.0" encoding="UTF-8" standalone="no"?>
<!DOCTYPE svg PUBLIC "-//W3C//DTD SVG 1.1//EN"
 "http://www.w3.org/Graphics/SVG/1.1/DTD/svg11.dtd">
<!-- Generated by graphviz version 2.47.0 (20210316.0004)
 -->
<!-- Title: dependencies Pages: 1 -->
<svg width="562pt" height="222pt"
 viewBox="0.00 0.00 562.00 222.00" xmlns="http://www.w3.org/2000/svg" xmlns:xlink="http://www.w3.org/1999/xlink">
<g id="graph0" class="graph" transform="scale(1 1) rotate(0) translate(4 218)">
<title>dependencies</title>
<polygon fill="white" stroke="transparent" points="-4,4 -4,-218 558,-218 558,4 -4,4"/>
<text text-anchor="start" x="256.01" y="-42.4" font-family="Times-12" font-weight="bold" font-size="14.00">Legend</text>
<polygon fill="#ffffb3" stroke="transparent" points="43,-10 43,-30 63,-30 63,-10 43,-10"/>
<text text-anchor="start" x="66.63" y="-15.4" font-family="Times-12" font-size="14.00"> &#160;Declarations</text>
<polygon fill="#8dd3c7" stroke="transparent" points="156,-10 156,-30 176,-30 176,-10 156,-10"/>
<text text-anchor="start" x="179.73" y="-15.4" font-family="Times-12" font-size="14.00"> &#160;Module</text>
<polygon fill="#80b1d3" stroke="transparent" points="242,-10 242,-30 262,-30 262,-10 242,-10"/>
<text text-anchor="start" x="265.78" y="-15.4" font-family="Times-12" font-size="14.00"> &#160;Bootstrap</text>
<polygon fill="#fdb462" stroke="transparent" points="339,-10 339,-30 359,-30 359,-10 339,-10"/>
<text text-anchor="start" x="362.67" y="-15.4" font-family="Times-12" font-size="14.00"> &#160;Providers</text>
<polygon fill="#fb8072" stroke="transparent" points="435,-10 435,-30 455,-30 455,-10 435,-10"/>
<text text-anchor="start" x="458.73" y="-15.4" font-family="Times-12" font-size="14.00"> &#160;Exports</text>
<g id="clust1" class="cluster">
<title>cluster_AppModule</title>
<polygon fill="none" stroke="black" stroke-dasharray="1,5" points="8,-70 8,-198 268,-198 268,-70 8,-70"/>
</g>
<g id="clust3" class="cluster">
<title>cluster_AppModule_imports</title>
<polygon fill="none" stroke="black" points="154,-78 154,-130 260,-130 260,-78 154,-78"/>
</g>
<g id="clust6" class="cluster">
<title>cluster_AppModule_providers</title>
<polygon fill="none" stroke="black" points="16,-78 16,-130 146,-130 146,-78 16,-78"/>
</g>
<g id="clust7" class="cluster">
<title>cluster_FormModule</title>
<polygon fill="none" stroke="black" stroke-dasharray="1,5" points="276,-138 276,-206 546,-206 546,-138 276,-138"/>
</g>
<g id="clust10" class="cluster">
<title>cluster_FormModule_exports</title>
<polygon fill="none" stroke="black" points="430,-146 430,-198 538,-198 538,-146 430,-146"/>
</g>
<g id="clust12" class="cluster">
<title>cluster_FormModule_providers</title>
<polygon fill="none" stroke="black" points="284,-146 284,-198 422,-198 422,-146 284,-146"/>
</g>
<!-- FormModule -->
<g id="node1" class="node">
<title>FormModule</title>
<polygon fill="#8dd3c7" stroke="black" points="251.88,-122 248.88,-126 227.88,-126 224.88,-122 162.12,-122 162.12,-86 251.88,-86 251.88,-122"/>
<text text-anchor="middle" x="207" y="-99.8" font-family="Times,serif" font-size="14.00">FormModule</text>
</g>
<!-- AppModule -->
<g id="node2" class="node">
<title>AppModule</title>
<polygon fill="#8dd3c7" stroke="black" points="185.66,-190 182.66,-194 161.66,-194 158.66,-190 102.34,-190 102.34,-154 185.66,-154 185.66,-190"/>
<text text-anchor="middle" x="144" y="-167.8" font-family="Times,serif" font-size="14.00">AppModule</text>
</g>
<!-- FormModule&#45;&gt;AppModule -->
<g id="edge1" class="edge">
<title>FormModule&#45;&gt;AppModule</title>
<path fill="none" stroke="black" d="M173.94,-122.22C173.94,-122.22 173.94,-143.73 173.94,-143.73"/>
<polygon fill="black" stroke="black" points="170.44,-143.73 173.94,-153.73 177.44,-143.73 170.44,-143.73"/>
</g>
<!-- FormService  -->
<g id="node4" class="node">
<title>FormService </title>
<polygon fill="#fb8072" stroke="black" points="529.81,-190 438.19,-190 438.19,-154 529.81,-154 529.81,-190"/>
<text text-anchor="middle" x="484" y="-167.8" font-family="Times,serif" font-size="14.00">FormService </text>
</g>
<!-- FormModule&#45;&gt;FormService  -->
<g id="edge3" class="edge">
<title>FormModule&#45;&gt;FormService </title>
<path fill="none" stroke="black" stroke-dasharray="5,2" d="M252.12,-104C330.61,-104 484,-104 484,-104 484,-104 484,-143.78 484,-143.78"/>
<polygon fill="black" stroke="black" points="480.5,-143.78 484,-153.78 487.5,-143.78 480.5,-143.78"/>
</g>
<!-- AppService -->
<g id="node3" class="node">
<title>AppService</title>
<ellipse fill="#fdb462" stroke="black" cx="81" cy="-104" rx="56.74" ry="18"/>
<text text-anchor="middle" x="81" y="-99.8" font-family="Times,serif" font-size="14.00">AppService</text>
</g>
<!-- AppService&#45;&gt;AppModule -->
<g id="edge2" class="edge">
<title>AppService&#45;&gt;AppModule</title>
<path fill="none" stroke="black" d="M119.9,-117.11C119.9,-117.11 119.9,-143.79 119.9,-143.79"/>
<polygon fill="black" stroke="black" points="116.4,-143.79 119.9,-153.79 123.4,-143.79 116.4,-143.79"/>
</g>
<!-- FormService -->
<g id="node5" class="node">
<title>FormService</title>
<ellipse fill="#fdb462" stroke="black" cx="353" cy="-172" rx="60.83" ry="18"/>
<text text-anchor="middle" x="353" y="-167.8" font-family="Times,serif" font-size="14.00">FormService</text>
</g>
<!-- FormService&#45;&gt;FormModule -->
<g id="edge4" class="edge">
<title>FormService&#45;&gt;FormModule</title>
<path fill="none" stroke="black" d="M291.83,-172C256.46,-172 218.88,-172 218.88,-172 218.88,-172 218.88,-132.22 218.88,-132.22"/>
<polygon fill="black" stroke="black" points="222.39,-132.22 218.88,-122.22 215.39,-132.22 222.39,-132.22"/>
</g>
</g>
</svg>
